<svg width="86" height="54" viewBox="0 0 86 54" fill="none" xmlns="http://www.w3.org/2000/svg">
<path d="M24.532 0.159998C29.62 0.159998 33.94 1.192 37.492 3.256C41.044 5.32 43.744 8.344 45.592 12.328C47.464 16.312 48.4 21.172 48.4 26.908C48.4 32.308 47.392 37 45.376 40.984C43.384 44.944 40.564 48.016 36.916 50.2C33.292 52.36 29.008 53.44 24.064 53.44C19 53.44 14.68 52.408 11.104 50.344C7.552 48.28 4.84 45.256 2.968 41.272C1.12 37.288 0.196 32.428 0.196 26.692C0.196 21.292 1.192 16.612 3.184 12.652C5.2 8.668 8.032 5.596 11.68 3.436C15.328 1.252 19.612 0.159998 24.532 0.159998ZM31.408 28.6C31.408 22.696 31.132 17.98 30.58 14.452C30.052 10.924 29.236 8.38 28.132 6.82C27.052 5.26 25.672 4.48 23.992 4.48C22.456 4.48 21.184 5.164 20.176 6.532C19.168 7.876 18.412 10.06 17.908 13.084C17.428 16.084 17.188 20.056 17.188 25C17.188 30.904 17.452 35.62 17.98 39.148C18.532 42.676 19.348 45.22 20.428 46.78C21.532 48.34 22.924 49.12 24.604 49.12C26.14 49.12 27.412 48.448 28.42 47.104C29.428 45.736 30.172 43.552 30.652 40.552C31.156 37.528 31.408 33.544 31.408 28.6ZM56.8218 10.024H59.0178C59.8578 10.024 60.4578 10.24 60.8178 10.672C61.2018 11.104 61.3938 11.92 61.3938 13.12V42.964C61.3938 43.924 61.2018 44.656 60.8178 45.16C60.4578 45.64 59.9298 45.964 59.2338 46.132L55.6338 46.924C54.0258 47.308 53.2218 48.172 53.2218 49.516C53.2218 50.284 53.4738 50.896 53.9778 51.352C54.5058 51.784 55.3098 52 56.3898 52H82.5618C83.4978 52 84.1938 51.784 84.6498 51.352C85.1058 50.896 85.3338 50.284 85.3338 49.516C85.3338 48.148 84.6618 47.296 83.3178 46.96L80.1138 46.132C79.4658 45.964 78.9618 45.64 78.6018 45.16C78.2658 44.656 78.0978 43.924 78.0978 42.964V3.364C78.0978 1.468 77.1258 0.519998 75.1818 0.519998C74.5818 0.519998 74.0058 0.591998 73.4538 0.735999C72.9258 0.855999 72.3378 1.084 71.6898 1.42C69.6978 2.38 67.8858 3.112 66.2538 3.616C64.6218 4.12 62.6298 4.372 60.2778 4.372H57.0378C56.0058 4.372 55.1898 4.648 54.5898 5.2C53.9898 5.728 53.6898 6.4 53.6898 7.216C53.6898 8.032 53.9418 8.704 54.4458 9.232C54.9498 9.76 55.7418 10.024 56.8218 10.024Z" fill="#FDD6BA"/>
</svg>
