<svg width="94" height="54" viewBox="0 0 94 54" fill="none" xmlns="http://www.w3.org/2000/svg">
<path d="M24.532 0.159998C29.62 0.159998 33.94 1.192 37.492 3.256C41.044 5.32 43.744 8.344 45.592 12.328C47.464 16.312 48.4 21.172 48.4 26.908C48.4 32.308 47.392 37 45.376 40.984C43.384 44.944 40.564 48.016 36.916 50.2C33.292 52.36 29.008 53.44 24.064 53.44C19 53.44 14.68 52.408 11.104 50.344C7.552 48.28 4.84 45.256 2.968 41.272C1.12 37.288 0.196 32.428 0.196 26.692C0.196 21.292 1.192 16.612 3.184 12.652C5.2 8.668 8.032 5.596 11.68 3.436C15.328 1.252 19.612 0.159998 24.532 0.159998ZM31.408 28.6C31.408 22.696 31.132 17.98 30.58 14.452C30.052 10.924 29.236 8.38 28.132 6.82C27.052 5.26 25.672 4.48 23.992 4.48C22.456 4.48 21.184 5.164 20.176 6.532C19.168 7.876 18.412 10.06 17.908 13.084C17.428 16.084 17.188 20.056 17.188 25C17.188 30.904 17.452 35.62 17.98 39.148C18.532 42.676 19.348 45.22 20.428 46.78C21.532 48.34 22.924 49.12 24.604 49.12C26.14 49.12 27.412 48.448 28.42 47.104C29.428 45.736 30.172 43.552 30.652 40.552C31.156 37.528 31.408 33.544 31.408 28.6ZM71.7978 25.864L70.5738 24.676C71.0538 24.532 71.5698 24.412 72.1218 24.316C72.6738 24.22 73.2618 24.148 73.8858 24.1C74.5098 24.028 75.1698 23.992 75.8658 23.992C79.2978 23.992 82.3098 24.52 84.9018 25.576C87.4938 26.632 89.5098 28.144 90.9498 30.112C92.4138 32.056 93.1458 34.384 93.1458 37.096C93.1458 40.408 92.2938 43.288 90.5898 45.736C88.9098 48.184 86.4978 50.08 83.3538 51.424C80.2338 52.768 76.5018 53.44 72.1578 53.44C67.9578 53.44 64.4658 52.936 61.6818 51.928C58.8978 50.92 56.8098 49.528 55.4178 47.752C54.0498 45.976 53.3658 43.948 53.3658 41.668C53.3658 39.364 54.1218 37.48 55.6338 36.016C57.1458 34.528 59.0178 33.784 61.2498 33.784C63.6738 33.784 65.4858 34.42 66.6858 35.692C67.9098 36.94 68.5218 38.608 68.5218 40.696V44.548C68.5218 45.94 68.8218 47.128 69.4218 48.112C70.0458 49.096 70.9218 49.588 72.0498 49.588C73.1778 49.588 74.1378 49.252 74.9298 48.58C75.7218 47.884 76.3338 46.792 76.7658 45.304C77.1978 43.792 77.4138 41.812 77.4138 39.364C77.4138 35.716 76.8378 33.112 75.6858 31.552C74.5578 29.992 72.9978 29.212 71.0058 29.212H68.4138C67.4298 29.212 66.6978 28.996 66.2178 28.564C65.7378 28.108 65.4978 27.472 65.4978 26.656C65.4978 26.032 65.6298 25.48 65.8938 25C66.1818 24.52 66.6858 23.968 67.4058 23.344L83.4258 9.412L83.8578 13.876H64.7778C63.7698 13.876 62.9898 14.056 62.4378 14.416C61.8858 14.752 61.5138 15.316 61.3218 16.108L60.6018 18.952C60.4338 19.648 60.1098 20.212 59.6298 20.644C59.1738 21.052 58.5018 21.256 57.6138 21.256C56.7498 21.256 56.0418 21.028 55.4898 20.572C54.9378 20.092 54.7098 19.372 54.8058 18.412L56.1018 4.948C56.1978 3.916 56.6178 3.1 57.3618 2.5C58.1058 1.9 59.1018 1.6 60.3498 1.6H89.6178C91.0818 1.6 92.1258 1.78 92.7498 2.14C93.3738 2.5 93.6858 3.076 93.6858 3.868C93.6858 4.396 93.4818 4.996 93.0738 5.668C92.6898 6.34 91.8618 7.264 90.5898 8.44L71.7978 25.864Z" fill="#FDD6BA"/>
</svg>
